# Aspose.3D Wavefront OBJ Exporter
# Copyright 2004-2021 Aspose Pty Ltd.
# File created: 12/02/2021 18:08:14


#
# object obj_64520037
#

v -6.08765649795532227 -4.49928903579711912 -25.56999969482421872
v -6.13140249252319336 -4.49928903579711912 -25.56999969482421872
v -6.13140249252319336 -4.50478935241699216 -25.56999969482421872
v -11.01898765563964843 -6.76762485504150384 -25.56999969482421872
v -9.92478847503662112 -8.07724952697753906 -25.56999969482421872
v -11.19140243530273436 -8.07724952697753906 -25.56999969482421872
v -10.5134906768798828 -5.54724931716918944 -25.56999969482421872
v -9.70936298370361328 -4.49928903579711912 -25.56999969482421872
v -9.73887348175048832 -7.13571596145629882 -25.56999969482421872
v -9.32566547393798828 -6.26951265335083008 -25.56999969482421872
v -8.66140270233154296 -3.69516086578369144 -25.56999969482421872
v -8.71088790893554688 -5.53256034851074216 -25.56999969482421872
v -8.24964141845703124 -5.19950866699218752 -25.56999969482421872
v -7.44102716445922848 -3.1896648406982422 -25.56999969482421872
v -7.93281173706054688 -4.97073650360107424 -25.56999969482421872
v -7.0398721694946289 -4.61901426315307616 -25.56999969482421872
v -6.13140249252319336 -3.01724934577941894 -25.56999969482421872
v -4.82177829742431648 -3.1896648406982422 -25.56999969482421872
v -5.13544034957885742 -4.61901426315307616 -25.56999969482421872
v -4.24250078201293944 -4.97073650360107424 -25.56999969482421872
v -3.60140252113342288 -3.69516086578369144 -25.56999969482421872
v -3.95395946502685552 -5.17908287048339844 -25.56999969482421872
v -3.46442437171936032 -5.53256034851074216 -25.56999969482421872
v -2.55344223976135256 -4.49928903579711912 -25.56999969482421872
v -2.84964704513549808 -6.26951265335083008 -25.56999969482421872
v -2.43643927574157712 -7.13571596145629882 -25.56999969482421872
v -1.7493140697479248 -5.54724931716918944 -25.56999969482421872
v -2.25052404403686524 -8.07724952697753906 -25.56999969482421872
v -1.07140254974365234 -8.07724952697753906 -25.56999969482421872
v -1.24381792545318604 -6.76762485504150384 -25.56999969482421872
v -2.43643927574157712 -7.13571596145629882 -6.65999984741210936
v -2.25052404403686524 -8.07724952697753906 -6.65999984741210936
v -1.07140254974365234 -8.07724952697753906 -6.65999984741210936
v -1.24381792545318604 -6.76762485504150384 -6.65999984741210936
v -1.7493140697479248 -5.54724931716918944 -6.65999984741210936
v -2.55344223976135256 -4.49928903579711912 -6.65999984741210936
v -3.60140252113342288 -3.69516086578369144 -6.65999984741210936
v -4.82177829742431648 -3.1896648406982422 -6.65999984741210936
v -6.13140249252319336 -3.01724934577941894 -6.65999984741210936
v -7.44102716445922848 -3.1896648406982422 -6.65999984741210936
v -8.66140270233154296 -3.69516086578369144 -6.65999984741210936
v -9.70936298370361328 -4.49928903579711912 -6.65999984741210936
v -10.5134906768798828 -5.54724931716918944 -6.65999984741210936
v -11.01898765563964843 -6.76762485504150384 -6.65999984741210936
v -11.19140243530273436 -8.07724952697753906 -6.65999984741210936
v -9.92478847503662112 -8.07724952697753906 -6.65999984741210936
v -9.73887348175048832 -7.13571596145629882 -6.65999984741210936
v -9.32566547393798828 -6.26951265335083008 -6.65999984741210936
v -8.71088790893554688 -5.53256034851074216 -6.65999984741210936
v -8.24964141845703124 -5.19950866699218752 -6.65999984741210936
v -7.93281173706054688 -4.97073650360107424 -6.65999984741210936
v -7.0398721694946289 -4.61901426315307616 -6.65999984741210936
v -6.13140249252319336 -4.50478935241699216 -6.65999984741210936
v -6.13140249252319336 -4.49928903579711912 -6.65999984741210936
v -6.08765649795532227 -4.49928903579711912 -6.65999984741210936
v -5.13544034957885742 -4.61901426315307616 -6.65999984741210936
v -4.24250078201293944 -4.97073650360107424 -6.65999984741210936
v -3.95395946502685552 -5.17908287048339844 -6.65999984741210936
v -3.46442437171936032 -5.53256034851074216 -6.65999984741210936
v -2.84964704513549808 -6.26951265335083008 -6.65999984741210936
# 60 vertices

vn 0 0 1
vn 0 0 -1
vn -0.98105692863464352 -0.19371964037418364 0
vn 1.2244903103086034E-15 -1 0
vn 0.99144488573074336 0.13052618503570556 0
vn 0.92387950420379632 0.38268342614173888 0
vn 0.79335331916809088 0.60876142978668216 0
vn 0.60876142978668216 0.79335331916809088 0
vn 0.38268342614173888 0.92387950420379632 0
vn 0.13052618503570556 0.99144488573074336 0
vn -0.13052618503570556 0.99144488573074336 0
vn -0.38268342614173888 0.92387950420379632 0
vn -0.60876142978668216 0.79335331916809088 0
vn -0.79335331916809088 0.60876142978668216 0
vn -0.92387950420379632 0.38268342614173888 0
vn -0.99144488573074336 0.13052618503570556 0
vn 0 -1 0
vn 0.98105692863464352 -0.19371964037418364 0
vn 0.90256518125534064 -0.43055325746536256 0
vn 0.76788771152496336 -0.64058446884155272 0
vn 0.58540838956832888 -0.8107385635375976 0
vn 0.36648672819137576 -0.93042325973510736 0
vn 0.12475087493658066 -0.99218809604644768 0
vn 1 0 0
vn 1.6502277043234544E-14 -1 0
vn -0.12475087493658066 -0.99218809604644768 0
vn -0.36648672819137576 -0.93042325973510736 0
vn -0.58540838956832888 -0.8107385635375976 0
vn -0.76788771152496336 -0.64058446884155272 0
vn -0.90256518125534064 -0.43055325746536256 0
# 30 vertex normals

g obj_64520037
s 1
f 1//1 2//1 3//1
f 4//2 5//2 6//2
f 5//2 4//2 7//2
f 5//2 7//2 8//2
f 5//2 8//2 9//2
f 9//2 8//2 10//2
f 10//2 8//2 11//2
f 10//2 11//2 12//2
f 12//2 11//2 13//2
f 13//2 11//2 14//2
f 13//2 14//2 15//2
f 15//2 14//2 16//2
f 16//2 14//2 17//2
f 16//2 17//2 2//2
f 2//2 17//2 1//2
f 1//2 17//2 18//2
f 1//2 18//2 19//2
f 19//2 18//2 20//2
f 20//2 18//2 21//2
f 20//2 21//2 22//2
f 22//2 21//2 23//2
f 23//2 21//2 24//2
f 23//2 24//2 25//2
f 25//2 24//2 26//2
f 26//2 24//2 27//2
f 26//2 27//2 28//2
f 28//2 27//2 29//2
f 29//2 27//2 30//2
f 3//2 16//2 2//2
f 31//3 28//3 32//3
f 28//3 31//3 26//3
f 33//4 28//4 29//4
f 28//4 33//4 32//4
f 30//5 33//5 29//5
f 33//5 30//5 34//5
f 27//6 34//6 30//6
f 34//6 27//6 35//6
f 24//7 35//7 27//7
f 35//7 24//7 36//7
f 37//8 24//8 21//8
f 24//8 37//8 36//8
f 38//9 21//9 18//9
f 21//9 38//9 37//9
f 39//10 18//10 17//10
f 18//10 39//10 38//10
f 40//11 17//11 14//11
f 17//11 40//11 39//11
f 41//12 14//12 11//12
f 14//12 41//12 40//12
f 42//13 11//13 8//13
f 11//13 42//13 41//13
f 42//14 7//14 43//14
f 7//14 42//14 8//14
f 43//15 4//15 44//15
f 4//15 43//15 7//15
f 44//16 6//16 45//16
f 6//16 44//16 4//16
f 46//17 6//17 5//17
f 6//17 46//17 45//17
f 9//18 46//18 5//18
f 46//18 9//18 47//18
f 10//19 47//19 9//19
f 47//19 10//19 48//19
f 12//20 48//20 10//20
f 48//20 12//20 49//20
f 50//21 12//21 13//21
f 12//21 50//21 49//21
f 51//21 13//21 15//21
f 13//21 51//21 50//21
f 52//22 15//22 16//22
f 15//22 52//22 51//22
f 53//23 16//23 3//23
f 16//23 53//23 52//23
f 2//24 53//24 3//24
f 53//24 2//24 54//24
f 55//25 2//25 1//25
f 2//25 55//25 54//25
f 56//26 1//26 19//26
f 1//26 56//26 55//26
f 57//27 19//27 20//27
f 19//27 57//27 56//27
f 58//28 20//28 22//28
f 20//28 58//28 57//28
f 59//28 22//28 23//28
f 22//28 59//28 58//28
f 59//29 25//29 60//29
f 25//29 59//29 23//29
f 60//30 26//30 31//30
f 26//30 60//30 25//30
f 46//1 44//1 45//1
f 44//1 46//1 43//1
f 43//1 46//1 42//1
f 42//1 46//1 47//1
f 42//1 47//1 48//1
f 42//1 48//1 41//1
f 41//1 48//1 49//1
f 41//1 49//1 50//1
f 41//1 50//1 40//1
f 40//1 50//1 51//1
f 40//1 51//1 52//1
f 40//1 52//1 39//1
f 39//1 52//1 54//1
f 54//1 52//1 53//1
f 39//1 54//1 55//1
f 39//1 55//1 38//1
f 38//1 55//1 56//1
f 38//1 56//1 57//1
f 38//1 57//1 37//1
f 37//1 57//1 58//1
f 37//1 58//1 59//1
f 37//1 59//1 36//1
f 36//1 59//1 60//1
f 36//1 60//1 31//1
f 36//1 31//1 35//1
f 35//1 31//1 32//1
f 35//1 32//1 33//1
f 35//1 33//1 34//1
#117 polygons

